{"title":"Millers Crossing.[x264](AC3)(4 ch). 7 MULTI_sub.mkv","uid":5211923,"size":1904463471,"categoryP":"video","categoryS":"movies","magnet":"?xt=urn:btih:ca35bd317bba01d72f54764848756af8d2c83b84&amp;dn=Millers+Crossing.%5Bx264%5D%28AC3%29%284+ch%29.+7+MULTI_sub.mkv&amp;tr=udp%3A%2F%2Ftracker.openbittorrent.com%3A80&amp;tr=udp%3A%2F%2Fopen.demonii.com%3A1337&amp;tr=udp%3A%2F%2Ftracker.coppersurfer.tk%3A6969&amp;tr=udp%3A%2F%2Fexodus.desync.com%3A6969","seeders":0,"leechers":1,"uploader":"Zen_Bud","files":-1,"time":1260633814,"description":"General\nComplete name                    : Millers Crossing.mkv\nFormat                           : Matroska\nFile size                        : 1.77 GiB\nDuration                         : 1h 50mn\nOverall bit rate                 : 2 305 Kbps\n\n\nVideo\nID                               : 1\nFormat                           : AVC\n\nCodec ID                         : V_MPEG4/ISO/AVC\nDuration                         : 1h 50mn\nBit rate                         : 1 865 Kbps\nNominal bit rate                 : 1 897 Kbps\nWidth                            : 716 pixels\nHeight                           : 552 pixels\nDisplay aspect ratio             : 16/9\nFrame rate                       : 25.000 fps\nResolution                       : 24 bits\nColorimetry                      : 4:2:0\nScan type                        : Progressive\nBits/(Pixel*Frame)               : 0.189\nStream size                      : 1.43 GiB (81%)\nWriting library                  : x264 core 79\n\n\nAudio\nID                               : 2\nFormat                           : AC-3\nFormat/Info                      : Audio Coding 3\nCodec ID                         : A_AC3\nDuration                         : 1h 50mn\nBit rate mode                    : Constant\nBit rate                         : 384 Kbps\nChannel(s)                       : 4 channels\nChannel positions                : Front: L C R, Surround: C\nSampling rate                    : 48.0 KHz\nStream size                      : 303 MiB (17%)\nLanguage                         : English\n\nText #1\nLanguage                         : Dutch\n\nText #2\nLanguage                         : English\n\nText #3\nLanguage                         : French\n\nText #4\nLanguage                         : German\n\nText #5\nLanguage                         : Italian\n\nText #6\nLanguage                         : Spanish\n\nText #7\nLanguage                         : Swedish","torrent":{"xt":"urn:btih:ca35bd317bba01d72f54764848756af8d2c83b84","amp;dn":"Millers+Crossing.%5Bx264%5D%28AC3%29%284+ch%29.+7+MULTI_sub.mkv","amp;tr":["udp%3A%2F%2Ftracker.openbittorrent.com%3A80","udp%3A%2F%2Fopen.demonii.com%3A1337","udp%3A%2F%2Ftracker.coppersurfer.tk%3A6969","udp%3A%2F%2Fexodus.desync.com%3A6969"],"infoHash":"ca35bd317bba01d72f54764848756af8d2c83b84","infoHashBuffer":{"type":"Buffer","data":[202,53,189,49,123,186,1,215,47,84,118,72,72,117,106,248,210,200,59,132]},"announce":[],"urlList":[]}}